<?xml version="1.0" encoding="utf-8"?>
<!-- Generator: Adobe Illustrator 22.1.0, SVG Export Plug-In . SVG Version: 6.00 Build 0)  -->
<svg version="1.1" xmlns="http://www.w3.org/2000/svg" xmlns:xlink="http://www.w3.org/1999/xlink" x="0px" y="0px"
	 viewBox="0 0 1920 1080" style="enable-background:new 0 0 1920 1080;" xml:space="preserve">
<style type="text/css">
	.st0{fill:#FFFFFF;}
	.st1{fill:none;stroke:#000000;stroke-miterlimit:10;}
</style>
<g id="Слой_1">
	<g>
		<path class="st0" d="M960.5,1079.5c-76.1,0-150-14.3-219.5-42.4c-67.2-27.2-127.5-66.1-179.3-115.6
			c-51.8-49.5-92.5-107.2-120.9-171.5c-29.4-66.5-44.3-137.2-44.3-210c0-72.8,14.9-143.5,44.3-210c28.4-64.2,69.1-121.9,120.9-171.5
			C613.5,109,673.8,70.1,741,42.9C810.5,14.8,884.4,0.5,960.5,0.5s150,14.3,219.5,42.4c67.2,27.2,127.5,66.1,179.3,115.6
			c51.8,49.5,92.5,107.2,120.9,171.5c29.4,66.5,44.3,137.2,44.3,210c0,72.8-14.9,143.5-44.3,210c-28.4,64.2-69.1,121.9-120.9,171.5
			c-51.8,49.5-112.1,88.5-179.3,115.6C1110.5,1065.2,1036.6,1079.5,960.5,1079.5z"/>
		<path d="M960.5,1c76.1,0,149.9,14.3,219.4,42.4c33.4,13.5,65.6,30.2,95.7,49.7c29.8,19.3,57.9,41.4,83.4,65.8
			c25.5,24.4,48.6,51.2,68.8,79.8c20.3,28.8,37.8,59.6,51.9,91.6c29.4,66.4,44.3,137,44.3,209.8s-14.9,143.3-44.3,209.8
			c-14.1,31.9-31.6,62.7-51.9,91.6c-20.2,28.5-43.3,55.4-68.8,79.8c-25.5,24.4-53.6,46.5-83.4,65.8c-30.1,19.5-62.3,36.2-95.7,49.7
			c-69.5,28.1-143.3,42.4-219.4,42.4s-149.9-14.3-219.4-42.4c-33.4-13.5-65.6-30.2-95.7-49.7c-29.8-19.3-57.9-41.4-83.4-65.8
			c-25.5-24.4-48.6-51.2-68.8-79.8c-20.3-28.8-37.8-59.6-51.9-91.6C411.9,683.3,397,612.8,397,540s14.9-143.3,44.3-209.8
			c14.1-31.9,31.6-62.7,51.9-91.6c20.2-28.5,43.3-55.4,68.8-79.8c25.5-24.4,53.6-46.5,83.4-65.8c30.1-19.5,62.3-36.2,95.7-49.7
			C810.6,15.3,884.4,1,960.5,1 M960.5,0C648.7,0,396,241.8,396,540s252.7,540,564.5,540S1525,838.2,1525,540S1272.3,0,960.5,0
			L960.5,0z"/>
	</g>
</g>
<g id="Слой_2">
	<g>
		<path class="st0" d="M961,996.5c-64.3,0-126.7-12.1-185.5-35.9c-56.7-23-107.7-55.9-151.5-97.8c-43.8-41.9-78.1-90.7-102.1-145.1
			c-24.8-56.3-37.4-116.1-37.4-177.7c0-61.6,12.6-121.4,37.4-177.7c24-54.4,58.4-103.2,102.1-145.1c43.8-41.9,94.7-74.8,151.5-97.8
			C834.3,95.6,896.7,83.5,961,83.5s126.7,12.1,185.5,35.9c56.7,23,107.7,55.9,151.5,97.8c43.8,41.9,78.1,90.7,102.1,145.1
			c24.8,56.3,37.4,116.1,37.4,177.7c0,61.6-12.6,121.4-37.4,177.7c-24,54.4-58.4,103.2-102.1,145.1c-43.8,41.9-94.7,74.8-151.5,97.8
			C1087.7,984.4,1025.3,996.5,961,996.5z"/>
		<path d="M961,84c64.3,0,126.6,12.1,185.3,35.8c56.7,23,107.6,55.9,151.3,97.7c43.7,41.9,78,90.6,102,144.9
			c24.8,56.2,37.4,115.9,37.4,177.5s-12.6,121.3-37.4,177.5c-24,54.3-58.3,103.1-102,144.9c-43.7,41.9-94.6,74.8-151.3,97.7
			c-58.7,23.8-121,35.8-185.3,35.8s-126.6-12.1-185.3-35.8c-56.7-23-107.6-55.9-151.3-97.7c-43.7-41.9-78-90.6-102-144.9
			C497.6,661.3,485,601.6,485,540s12.6-121.3,37.4-177.5c24-54.3,58.3-103.1,102-144.9c43.7-41.9,94.6-74.8,151.3-97.7
			C834.4,96.1,896.7,84,961,84 M961,83c-263.4,0-477,204.6-477,457s213.6,457,477,457s477-204.6,477-457S1224.4,83,961,83L961,83z"
			/>
	</g>
</g>
<g id="Слой_3">
	<g>
		<rect x="611.5" y="229.5" class="st0" width="695" height="625"/>
		<path d="M1306,230v624H612V230H1306 M1307,229H611v626h696V229L1307,229z"/>
	</g>
</g>
<g id="Слой_4">
	<g>
		<rect x="652.5" y="253.5" class="st0" width="617" height="577"/>
		<path d="M1269,254v576H653V254H1269 M1270,253H652v578h618V253L1270,253z"/>
	</g>
	<g>
		<path class="st1" d="M748.5,765.5"/>
	</g>
	<g>
		<g>
			<path d="M696.1,331.6c0,110.7,0,221.3,0,332c0,31.3,0,62.7,0,94c0,15.7,13.8,30.7,30,30c16.3-0.7,30-13.2,30-30
				c0-110.7,0-221.3,0-332c0-31.3,0-62.7,0-94c0-15.7-13.8-30.7-30-30C709.8,302.3,696.1,314.8,696.1,331.6L696.1,331.6z"/>
		</g>
	</g>
	<g>
		<g>
			<path d="M883.1,327.6c0,110.7,0,221.3,0,332c0,31.3,0,62.7,0,94c0,15.7,13.8,30.7,30,30c16.3-0.7,30-13.2,30-30
				c0-110.7,0-221.3,0-332c0-31.3,0-62.7,0-94c0-15.7-13.8-30.7-30-30C896.8,298.3,883.1,310.8,883.1,327.6L883.1,327.6z"/>
		</g>
	</g>
	<g>
		<g>
			<path d="M883.1,327.6c0,110.7,0,221.3,0,332c0,31.3,0,62.7,0,94c0,15.7,13.8,30.7,30,30c16.3-0.7,30-13.2,30-30
				c0-110.7,0-221.3,0-332c0-31.3,0-62.7,0-94c0-15.7-13.8-30.7-30-30C896.8,298.3,883.1,310.8,883.1,327.6L883.1,327.6z"/>
		</g>
	</g>
	<g>
		<g>
			<path d="M883.1,327.6c0,110.7,0,221.3,0,332c0,31.3,0,62.7,0,94c0,15.7,13.8,30.7,30,30c16.3-0.7,30-13.2,30-30
				c0-110.7,0-221.3,0-332c0-31.3,0-62.7,0-94c0-15.7-13.8-30.7-30-30C896.8,298.3,883.1,310.8,883.1,327.6L883.1,327.6z"/>
		</g>
	</g>
	<g>
		<g>
			<path d="M883.1,327.6c0,110.7,0,221.3,0,332c0,31.3,0,62.7,0,94c0,15.7,13.8,30.7,30,30c16.3-0.7,30-13.2,30-30
				c0-110.7,0-221.3,0-332c0-31.3,0-62.7,0-94c0-15.7-13.8-30.7-30-30C896.8,298.3,883.1,310.8,883.1,327.6L883.1,327.6z"/>
		</g>
	</g>
	<g>
		<g>
			<path d="M883.1,327.6c0,110.7,0,221.3,0,332c0,31.3,0,62.7,0,94c0,15.7,13.8,30.7,30,30c16.3-0.7,30-13.2,30-30
				c0-110.7,0-221.3,0-332c0-31.3,0-62.7,0-94c0-15.7-13.8-30.7-30-30C896.8,298.3,883.1,310.8,883.1,327.6L883.1,327.6z"/>
		</g>
	</g>
	<g>
		<g>
			<path d="M997.1,326.6c0,110.7,0,221.3,0,332c0,31.3,0,62.7,0,94c0,15.7,13.8,30.7,30,30c16.3-0.7,30-13.2,30-30
				c0-110.7,0-221.3,0-332c0-31.3,0-62.7,0-94c0-15.7-13.8-30.7-30-30C1010.8,297.3,997.1,309.8,997.1,326.6L997.1,326.6z"/>
		</g>
	</g>
	<g>
		<g>
			<path d="M700.4,349.6c53,107.5,103.6,216.1,151.8,325.8c13.6,31,27,62.1,40.2,93.3c2.7,6.4,11.6,12,17.9,13.8
				c7.2,2,16.7,1.1,23.1-3c6.4-4.1,12-10.3,13.8-17.9c1.9-8.4,0.3-15.3-3-23.1c-46.8-110.3-96-219.6-147.7-327.7
				c-14.6-30.6-29.4-61-44.4-91.4c-7-14.1-28.1-19.1-41-10.8C696.8,317.9,693,334.5,700.4,349.6L700.4,349.6z"/>
		</g>
	</g>
	<g>
		<g>
			<path d="M1037.3,355.6c1.7-0.3,3.4-0.5,5.2-0.8c-2.7,0.4-5.3,0.7-8,1.1c12.7-1.6,25.5-1.5,38.2,0.2c-2.7-0.4-5.3-0.7-8-1.1
				c12.7,1.8,25,5.2,36.8,10.2c-2.4-1-4.8-2-7.2-3c4.3,1.8,8.4,3.8,12.5,6.1c1.9,1.1,3.8,2.2,5.7,3.3c0.9,0.6,1.8,1.2,2.8,1.8
				c1,0.7,5,3.7,1,0.5c-3.8-3-0.6-0.5,0.2,0.2c0.8,0.7,1.6,1.4,2.4,2.2c1.6,1.5,3,3.2,4.5,4.7c2.5,2.5-3.5-5.2-1.7-2.2
				c0.5,0.9,1.2,1.8,1.7,2.7c1.2,2,2.3,4.1,3.2,6.2c-1-2.4-2-4.8-3-7.2c2,4.8,3.3,9.6,4,14.7c-0.4-2.7-0.7-5.3-1.1-8
				c0.8,6.8,0.7,13.5-0.2,20.3c0.4-2.7,0.7-5.3,1.1-8c-1.5,10.2-4.4,19.9-8.3,29.4c1-2.4,2-4.8,3-7.2c-2.3,5.3-4.7,10.5-7.6,15.5
				c-1.3,2.3-2.6,4.5-4,6.7c-0.9,1.3-1.7,2.6-2.6,3.9c-0.7,1-3.6,4.9-0.5,0.7c3.3-4.3,0-0.1-0.6,0.6c-0.8,1-1.7,1.9-2.6,2.8
				c-0.4,0.5-6,5.9-6.2,5.8c-0.1-0.1,6.7-4.9,1.8-1.4c-1.1,0.7-2.1,1.4-3.2,2.1c-2.8,1.7-5.6,3.1-8.6,4.3c2.4-1,4.8-2,7.2-3
				c-9.7,3.9-20,5.7-30.3,7.1c2.7-0.4,5.3-0.7,8-1.1c-16.7,2.2-34.2,3.4-49.9,9.9c-7.5,3.1-13.6,6.5-17.9,13.8
				c-3.8,6.4-5.4,15.9-3,23.1c2.3,7.3,6.8,14.3,13.8,17.9c6.6,3.5,15.8,6,23.1,3c10.3-4.2,21.1-6.1,32.1-7.6c-2.7,0.4-5.3,0.7-8,1.1
				c13.2-1.7,26.8-2.9,39.7-6.5c14.5-4.1,26.9-11.1,38.4-20.8c19-16.1,31.5-40.7,39.3-63.9c8.8-26.2,9.4-54.7-2.7-79.9
				c-12.4-25.8-39.6-40.7-65.1-50.5c-29.1-11.2-60.7-12.6-91.2-7.6c-7,1.1-14.5,8-17.9,13.8c-3.8,6.4-5.4,15.9-3,23.1
				c2.3,7.3,6.8,14.3,13.8,17.9C1021.7,356.6,1028.9,357,1037.3,355.6L1037.3,355.6z"/>
		</g>
	</g>
	<g>
		<g>
			<path d="M1024.6,580.4c32.8,3.4,65.8-3.4,98.6,0.9c-2.7-0.4-5.3-0.7-8-1.1c9.4,1.4,18.5,3.6,27.3,7.1c-2.4-1-4.8-2-7.2-3
				c5.1,2.2,10,4.7,14.6,7.9c2.1,1.4,5,4.7-1.3-1.1c0.7,0.7,1.5,1.3,2.3,1.9c2,1.8,4,3.7,5.8,5.7c0.8,0.9,1.6,1.9,2.5,2.8
				c3.2,3.7-3.5-4.9-1.5-2c1.4,2,2.9,4,4.2,6.2c2.8,4.5,5.1,9.2,7.2,14c-1-2.4-2-4.8-3-7.2c4.3,10.3,7.1,21.1,8.6,32.2
				c-0.4-2.7-0.7-5.3-1.1-8c1.5,11.4,1.7,22.8,0.3,34.2c0.4-2.7,0.7-5.3,1.1-8c-1.1,8.3-3.2,16.3-6.4,24c1-2.4,2-4.8,3-7.2
				c-2.2,5-4.8,9.5-7.8,14c-2.7,4.1,3.8-4.6,1.5-1.9c-0.8,0.9-1.6,1.9-2.5,2.8c-1.7,1.8-3.5,3.6-5.3,5.3c-0.7,0.7-1.5,1.3-2.3,2
				c-4.3,3.8,6-4.3,1.4-1c-1.8,1.3-3.7,2.6-5.6,3.8c-4.5,2.8-9.2,5.2-14.1,7.4c2.4-1,4.8-2,7.2-3c-11,4.6-22.4,7.5-34.2,9
				c2.7-0.4,5.3-0.7,8-1.1c-22.9,2.8-46,1-68.9-0.9c-15.7-1.3-30.7,14.7-30,30c0.8,17.4,13.2,28.6,30,30c34.9,2.9,71.8,5.3,105.4-7
				c17.3-6.4,33.2-15.1,46.7-27.8c13.5-12.7,23.2-29.3,28.5-47.1c9.9-32.7,6-70.3-7.2-101.4c-14.2-33.8-41.5-58.8-77.4-67.9
				c-19.3-5-39.6-5.8-59.5-5.1c-20.4,0.7-40.7,2.5-61.1,0.4c-7.2-0.7-16.3,3.9-21.2,8.8c-5.2,5.2-9.1,13.7-8.8,21.2
				c0.3,7.8,2.9,15.8,8.8,21.2C1009.6,577.3,1016.3,579.5,1024.6,580.4L1024.6,580.4z"/>
		</g>
	</g>
</g>
<g id="Слой_5">
</g>
</svg>
